<svg width="414" height="285" viewBox="0 0 414 285" fill="none" xmlns="http://www.w3.org/2000/svg">
<path d="M205.704 10.8055C249.385 16.3916 287 41.9774 330.456 49.1174C379.855 57.2336 432.042 37.1499 478.594 55.6417C530.023 76.071 583.326 108.173 606.356 158.714C629.367 209.214 612.309 268.897 600.491 323.157C589.768 372.392 573.854 421.994 540.767 459.86C509.737 495.371 455.584 498.746 420.034 529.679C380.395 564.171 367.984 625.799 321.674 650.502C273.521 676.189 205.139 700.108 161.105 667.803C110.128 630.404 127.406 547.592 102.151 489.451C87.9116 456.67 65.7642 429.458 44.966 400.434C18.6416 363.698 -20.054 336.668 -37.3019 294.845C-58.5021 243.437 -81.2713 185.81 -65.5493 132.452C-49.916 79.3943 -4.44358 35.2624 45.8262 12.7183C95.1169 -9.38658 152.162 3.95855 205.704 10.8055Z" fill="#C7F4E2"/>
</svg>
