<svg width="414" height="563" viewBox="0 0 414 563" fill="none" xmlns="http://www.w3.org/2000/svg">
<path d="M217.906 64.0064C260.534 87.5647 288.797 129.093 330.563 154.148C378.039 182.63 439.842 183.417 480.175 221.344C524.734 263.244 566.475 317.845 569.605 378.93C572.733 439.965 530.943 494.018 496.744 544.668C465.712 590.626 429.195 634.84 379.797 660.038C333.471 683.668 276.437 664.993 227.325 682.096C172.564 701.167 134.76 759.107 77.1206 765.444C17.186 772.034 -62.8214 768.551 -94.9525 717.53C-132.15 658.463 -80.734 580.852 -83.063 511.087C-84.3761 471.752 -96.0809 434.881 -105.663 396.708C-117.79 348.392 -146.578 304.945 -147.308 255.136C-148.206 193.913 -148.189 125.69 -110.343 77.557C-72.7102 29.6958 -8.03492 3.15202 52.7975 0.640756C112.445 -1.82159 165.656 35.1302 217.906 64.0064Z" fill="#C7F4E2"/>
</svg>
